# xmcd
#
# Track frame offsets:
#	150
#	52905
#	99626
#	143157
#	185444
#	237416
#
# Disc length: 3730 seconds
# Revision: 1
# Processed by: cddbd v1.5.2PL0 Copyright (c) Steve Scherf et al.
# Submitted via: dBpowerAMP V12.0
#
DISCID=4c0e9006
DTITLE=Lester Levenson - In Retreat CD 03
DYEAR=1981
DGENRE=Home Study
TTITLE0=In Retreat Session 3 pt 1
TTITLE1=In Retreat Session 3 pt 2
TTITLE2=In Retreat Session 3 pt 3
TTITLE3=In Retreat Session 3 pt 4
TTITLE4=In Retreat Session 3 pt 5
TTITLE5=In Retreat Session 3 pt 6
EXTD=
EXTT0=
EXTT1=
EXTT2=
EXTT3=
EXTT4=
EXTT5=
PLAYORDER=
